<?xml version="1.0" encoding="UTF-8" standalone="no"?>
<!-- Created with Inkscape (http://www.inkscape.org/) -->

<svg
   width="50"
   height="50"
   viewBox="0 0 13.229166 13.229166"
   version="1.1"
   id="svg12"
   inkscape:version="1.1.1 (3bf5ae0d25, 2021-09-20)"
   sodipodi:docname="VZ.svg"
   xmlns:inkscape="http://www.inkscape.org/namespaces/inkscape"
   xmlns:sodipodi="http://sodipodi.sourceforge.net/DTD/sodipodi-0.dtd"
   xmlns="http://www.w3.org/2000/svg"
   xmlns:svg="http://www.w3.org/2000/svg">
  <sodipodi:namedview
     id="namedview14"
     pagecolor="#ffffff"
     bordercolor="#666666"
     borderopacity="1.0"
     inkscape:pageshadow="2"
     inkscape:pageopacity="0.0"
     inkscape:pagecheckerboard="0"
     inkscape:document-units="mm"
     showgrid="false"
     inkscape:zoom="14.493388"
     inkscape:cx="52.81719"
     inkscape:cy="30.841651"
     inkscape:window-width="3870"
     inkscape:window-height="1550"
     inkscape:window-x="-7"
     inkscape:window-y="-7"
     inkscape:window-maximized="1"
     inkscape:current-layer="layer1"
     units="px" />
  <defs
     id="defs9" />
  <g
     inkscape:label="Layer 1"
     inkscape:groupmode="layer"
     id="layer1"
     style="display:inline">
    <text
       xml:space="preserve"
       style="font-style:normal;font-weight:normal;font-size:10.5833px;line-height:1.25;font-family:sans-serif;fill:#000000;fill-opacity:1;stroke:none;stroke-width:0.264583"
       x="36.350487"
       y="94.180809"
       id="text1954"><tspan
         sodipodi:role="line"
         id="tspan1952"
         style="stroke-width:0.264583"
         x="36.350487"
         y="94.180809" /></text>
    <g
       aria-label="V"
       id="text15530"
       style="font-size:18.8392px;line-height:1.25;stroke-width:0.470979"
       transform="matrix(0.41963239,0,0,0.41963234,-20.477027,-30.006785)">
      <path
         d="m 65.575503,78.226438 -4.985765,13.697054 h -2.42849 L 53.175483,78.226438 h 1.950152 l 4.295852,12.050464 4.295853,-12.050464 z"
         id="path434" />
    </g>
    <g
       aria-label="Z"
       id="text16128"
       style="font-size:18.8392px;line-height:1.25;stroke-width:0.470979;image-rendering:auto"
       transform="matrix(0.41963239,0,0,0.41963234,-20.477027,-30.006785)">
      <path
         d="M 75.1706,91.923683 H 64.481562 v -1.692584 l 8.39853,-10.385477 h -8.08577 v -1.618993 h 10.173904 v 1.64659 l -8.48132,10.43147 H 75.1706 Z"
         id="path413" />
    </g>
    <rect
       style="fill:#000000;fill-opacity:0;fill-rule:evenodd;stroke:#000000;stroke-width:0.611;stroke-miterlimit:4;stroke-dasharray:none;stroke-opacity:1"
       id="rect20250"
       width="12.588972"
       height="12.588972"
       x="0.32910421"
       y="0.32910421" />
    <g
       aria-label="Werkt"
       id="text24237"
       style="font-size:4.9389px;line-height:1.25;stroke-width:0.264583"
       transform="matrix(0.41963239,0,0,0.41963234,-20.477027,-30.006785)">
      <path
         d="m 61.612779,96.66467 q -0.01447,0.03376 -0.03859,0.05547 -0.0217,0.01929 -0.05788,0.03135 -0.03617,0.0096 -0.08682,0.01206 -0.05064,0.0048 -0.120579,0.0048 -0.07476,0 -0.125401,-0.0048 -0.05064,-0.0024 -0.08199,-0.01206 -0.03135,-0.01206 -0.04582,-0.03135 -0.01447,-0.01929 -0.01688,-0.05064 l -0.185691,-2.363341 h -0.0048 l -1.065915,2.358517 q -0.01206,0.03376 -0.03617,0.05547 -0.0217,0.01929 -0.05305,0.03135 -0.03135,0.0096 -0.0844,0.01206 -0.05064,0.0048 -0.125402,0.0048 -0.08199,0 -0.135048,-0.0048 -0.05306,-0.0024 -0.08682,-0.01206 -0.03135,-0.01206 -0.04582,-0.03376 -0.01447,-0.0217 -0.01688,-0.05547 l -0.248392,-2.891475 q -0.0048,-0.04823 -0.0024,-0.07958 0.0048,-0.03135 0.02412,-0.04582 0.0217,-0.01688 0.0627,-0.0217 0.04341,-0.0048 0.120578,-0.0048 0.06029,0 0.108521,0.0048 0.05064,0.0048 0.07235,0.01688 0.0217,0.01206 0.02894,0.03376 0.0072,0.0217 0.0072,0.05547 l 0.173633,2.590029 h 0.0048 l 1.191317,-2.609322 q 0.01206,-0.02653 0.02653,-0.04341 0.01688,-0.01929 0.04341,-0.02894 0.02653,-0.0096 0.06994,-0.01447 0.04582,-0.0048 0.120579,-0.0048 0.06511,0 0.103697,0.0048 0.03858,0.0024 0.06029,0.01447 0.0217,0.0096 0.02653,0.02894 0.0072,0.01688 0.0096,0.04341 l 0.197749,2.609322 h 0.0048 l 1.210609,-2.618968 q 0.0096,-0.02412 0.02412,-0.03858 0.01447,-0.01688 0.041,-0.02653 0.02894,-0.0096 0.07235,-0.01206 0.04582,-0.0048 0.113344,-0.0048 0.06994,0 0.110932,0.0072 0.041,0.0048 0.05788,0.02171 0.01688,0.01688 0.0096,0.05064 -0.0072,0.03135 -0.02894,0.08441 z"
         style="font-style:italic;font-family:Calibri;-inkscape-font-specification:'Calibri, Italic'"
         id="path455" />
      <path
         d="m 64.846698,94.966924 q 0,0.166398 -0.07717,0.299035 -0.07717,0.132636 -0.241158,0.226687 -0.163987,0.09405 -0.419613,0.144695 -0.255627,0.05064 -0.61254,0.05064 h -0.255626 q -0.01688,0.07958 -0.02412,0.15434 -0.0048,0.07476 -0.0048,0.139871 0,0.241158 0.118167,0.368971 0.120579,0.127813 0.388263,0.127813 0.154341,0 0.277331,-0.0217 0.12299,-0.02411 0.212218,-0.05064 0.09164,-0.02653 0.149518,-0.04823 0.05788,-0.02412 0.07958,-0.02412 0.0217,0 0.03135,0.01688 0.01206,0.01447 0.01206,0.04341 0,0.02412 -0.0048,0.05788 -0.0048,0.03376 -0.01447,0.06994 -0.0096,0.03376 -0.02653,0.06511 -0.01447,0.03135 -0.03376,0.05306 -0.02894,0.02894 -0.103698,0.05788 -0.07235,0.02653 -0.173633,0.05064 -0.101286,0.0217 -0.221864,0.03617 -0.120579,0.01447 -0.241158,0.01447 -0.21463,0 -0.376205,-0.04823 -0.161575,-0.04823 -0.270096,-0.147106 -0.106109,-0.101286 -0.159164,-0.250803 -0.05305,-0.149518 -0.05305,-0.35209 0,-0.156752 0.02894,-0.335208 0.03135,-0.180868 0.09646,-0.356913 0.06511,-0.176045 0.16881,-0.33762 0.103698,-0.161576 0.245981,-0.284566 0.144694,-0.12299 0.332797,-0.197749 0.188102,-0.07476 0.424436,-0.07476 0.202573,0 0.342444,0.05064 0.142282,0.05064 0.231511,0.130224 0.09164,0.07958 0.132636,0.178457 0.041,0.09646 0.041,0.192926 z m -0.407556,0.03617 q 0,-0.12299 -0.09646,-0.197749 -0.09646,-0.07717 -0.274919,-0.07717 -0.156752,0 -0.277331,0.05547 -0.120578,0.05306 -0.21463,0.144694 -0.09164,0.09164 -0.159164,0.21463 -0.06511,0.120579 -0.106109,0.255627 h 0.245981 q 0.253215,0 0.422025,-0.03135 0.171221,-0.03135 0.272507,-0.08441 0.103698,-0.05547 0.144695,-0.127814 0.04341,-0.07235 0.04341,-0.151929 z"
         style="font-style:italic;font-family:Calibri;-inkscape-font-specification:'Calibri, Italic'"
         id="path457" />
      <path
         d="m 66.792837,94.525606 q 0,0.0096 -0.0048,0.03858 -0.0024,0.02653 -0.0072,0.0627 -0.0048,0.03617 -0.01447,0.07476 -0.0096,0.03858 -0.02412,0.07235 -0.01447,0.03135 -0.03135,0.05305 -0.01447,0.02171 -0.03376,0.02171 -0.01929,0 -0.04341,-0.0072 -0.0217,-0.0096 -0.05064,-0.0217 -0.02653,-0.01206 -0.0627,-0.01929 -0.03617,-0.0096 -0.08441,-0.0096 -0.08199,0 -0.190514,0.07235 -0.106109,0.06994 -0.209807,0.195337 -0.103698,0.125402 -0.190514,0.296624 -0.08441,0.171221 -0.125402,0.371382 l -0.190514,0.96704 q -0.0048,0.01929 -0.01688,0.03376 -0.01206,0.01206 -0.03617,0.0217 -0.02412,0.0096 -0.06511,0.01447 -0.03858,0.0048 -0.09646,0.0048 -0.06029,0 -0.09888,-0.0048 -0.03617,-0.0048 -0.05788,-0.01447 -0.01929,-0.0096 -0.02653,-0.0217 -0.0048,-0.01447 0,-0.03376 l 0.431672,-2.172826 q 0.0024,-0.01688 0.01447,-0.03135 0.01206,-0.01447 0.03617,-0.02411 0.02412,-0.0096 0.05788,-0.01206 0.03617,-0.0048 0.0844,-0.0048 0.05064,0 0.08199,0.0048 0.03376,0.0024 0.05064,0.01206 0.01929,0.0096 0.02412,0.02411 0.0048,0.01447 0.0024,0.03135 l -0.07958,0.395498 q 0.05547,-0.09887 0.130225,-0.190515 0.07717,-0.09164 0.166399,-0.159163 0.08923,-0.06994 0.185691,-0.110933 0.09887,-0.041 0.192926,-0.041 0.041,0 0.08199,0.0072 0.04341,0.0048 0.07958,0.01447 0.03617,0.0072 0.0627,0.01929 0.02894,0.0096 0.04341,0.02412 0.01447,0.01447 0.01447,0.04582 z"
         style="font-style:italic;font-family:Calibri;-inkscape-font-specification:'Calibri, Italic'"
         id="path459" />
      <path
         d="m 68.951194,94.51596 q 0,0.02894 -0.0217,0.06029 -0.01929,0.03135 -0.07958,0.08682 l -0.942925,0.807877 0.648713,1.092442 q 0.02412,0.04341 0.03376,0.07476 0.0096,0.02894 0.0096,0.04582 0,0.0217 -0.0096,0.03858 -0.0096,0.01447 -0.03617,0.02412 -0.02412,0.0096 -0.06752,0.01447 -0.041,0.0072 -0.103697,0.0072 -0.06752,0 -0.10611,-0.0048 -0.03858,-0.0024 -0.0627,-0.01206 -0.02412,-0.0096 -0.03617,-0.02412 -0.01206,-0.01447 -0.0217,-0.03617 L 67.460862,95.490226 67.222116,96.6936 q -0.0048,0.01929 -0.01688,0.03376 -0.01206,0.01206 -0.03858,0.0217 -0.02412,0.0096 -0.06511,0.01447 -0.03858,0.0048 -0.09646,0.0048 -0.05788,0 -0.09646,-0.0048 -0.03617,-0.0048 -0.05788,-0.01206 -0.01929,-0.0096 -0.02653,-0.02412 -0.0072,-0.01447 -0.0024,-0.03376 l 0.64389,-3.22186 q 0.0048,-0.01929 0.01447,-0.03376 0.01206,-0.01447 0.03617,-0.02412 0.02653,-0.0096 0.06511,-0.01447 0.041,-0.0048 0.101286,-0.0048 0.05788,0 0.09405,0.0048 0.03858,0.0048 0.05788,0.01447 0.0217,0.0096 0.02653,0.02412 0.0048,0.01447 0.0024,0.03376 l -0.393087,1.96302 1.005626,-0.909163 q 0.01929,-0.0217 0.04341,-0.03617 0.02412,-0.01688 0.05547,-0.02411 0.03135,-0.0096 0.07235,-0.01206 0.04341,-0.0048 0.101286,-0.0048 0.05788,0 0.09646,0.0048 0.041,0.0024 0.0627,0.01206 0.02412,0.0072 0.03376,0.0217 0.0096,0.01206 0.0096,0.02894 z"
         style="font-style:italic;font-family:Calibri;-inkscape-font-specification:'Calibri, Italic'"
         id="path461" />
      <path
         d="m 70.598297,94.54731 q 0,0.0217 -0.0024,0.04823 -0.0024,0.02412 -0.0096,0.05064 -0.0072,0.02653 -0.01929,0.05306 -0.01206,0.02653 -0.02653,0.04823 -0.01206,0.01929 -0.02894,0.03135 -0.01688,0.01206 -0.03858,0.01206 h -0.554662 l -0.243569,1.210609 q -0.0096,0.05064 -0.01688,0.113344 -0.0072,0.0627 -0.0072,0.103698 0,0.12299 0.05064,0.180867 0.05306,0.05547 0.16881,0.05547 0.06511,0 0.113344,-0.0096 0.04823,-0.01206 0.08199,-0.02411 0.03617,-0.01206 0.0627,-0.02171 0.02653,-0.01206 0.04582,-0.01206 0.01929,0 0.02894,0.01447 0.01206,0.01206 0.01206,0.04823 0,0.03135 -0.0072,0.06994 -0.0048,0.03617 -0.01447,0.07235 -0.0096,0.03617 -0.02412,0.06511 -0.01447,0.02894 -0.03135,0.04582 -0.01929,0.01688 -0.05788,0.03376 -0.03858,0.01688 -0.08923,0.02894 -0.05064,0.01447 -0.108521,0.0217 -0.05547,0.0072 -0.110932,0.0072 -0.135048,0 -0.233922,-0.02894 -0.09887,-0.02894 -0.166399,-0.08923 -0.06752,-0.0627 -0.101286,-0.15434 -0.03135,-0.09405 -0.03135,-0.224277 0,-0.02894 0.0024,-0.0627 0.0024,-0.03617 0.0072,-0.07476 0.0072,-0.03858 0.01206,-0.07717 0.0072,-0.03859 0.01447,-0.07235 l 0.243569,-1.220255 h -0.301447 q -0.02653,0 -0.041,-0.01447 -0.01447,-0.01688 -0.01447,-0.0627 0,-0.03376 0.0072,-0.07717 0.0072,-0.04582 0.0217,-0.08441 0.01447,-0.03858 0.03617,-0.06511 0.02412,-0.02653 0.05547,-0.02653 h 0.303858 l 0.103698,-0.516076 q 0.0024,-0.01688 0.01447,-0.03135 0.01447,-0.01447 0.03858,-0.02411 0.02412,-0.01206 0.0627,-0.01688 0.041,-0.0048 0.09888,-0.0048 0.05788,0 0.09405,0.0048 0.03858,0.0048 0.05788,0.01688 0.0217,0.0096 0.02653,0.02411 0.0072,0.01447 0.0048,0.03135 l -0.103698,0.516076 h 0.554662 q 0.03617,0 0.04823,0.02653 0.01206,0.02653 0.01206,0.06029 z"
         style="font-style:italic;font-family:Calibri;-inkscape-font-specification:'Calibri, Italic'"
         id="path463" />
    </g>
  </g>
</svg>
